<?xml version="1.0" standalone="no"?>
<!DOCTYPE svg PUBLIC "-//W3C//DTD SVG 20010904//EN"
 "http://www.w3.org/TR/2001/REC-SVG-20010904/DTD/svg10.dtd">
<svg version="1.0" xmlns="http://www.w3.org/2000/svg"
 width="326.000000pt" height="326.000000pt" viewBox="0 0 326.000000 326.000000"
 preserveAspectRatio="xMidYMid meet">
<metadata>
Created by potrace 1.14, written by Peter Selinger 2001-2017
</metadata>
<g transform="translate(0.000000,326.000000) scale(0.100000,-0.100000)"
fill="#000000" stroke="none">
<path d="M1495 3214 c-204 -29 -328 -62 -460 -123 -381 -176 -663 -472 -814
-854 -137 -345 -146 -775 -25 -1137 82 -243 196 -424 384 -610 118 -117 226
-194 375 -268 275 -137 490 -181 790 -161 183 12 331 53 520 144 228 109 410
256 549 441 135 181 200 310 261 519 49 170 59 254 59 480 0 178 -4 226 -22
312 -44 203 -139 436 -235 576 -64 92 -162 212 -195 237 -15 12 -49 43 -77 69
-69 65 -117 100 -209 156 -170 102 -347 171 -516 200 -94 16 -327 27 -385 19z
m397 -147 c214 -55 379 -133 539 -254 214 -162 364 -353 467 -595 96 -226 132
-498 101 -776 -60 -561 -446 -1036 -972 -1198 -275 -85 -518 -85 -795 0 -140
43 -248 95 -377 181 -164 111 -300 255 -404 429 -152 256 -206 454 -205 766 0
333 61 558 224 820 122 196 358 410 565 510 101 49 267 105 371 124 100 19
401 15 486 -7z"/>
<path d="M1416 2954 c-195 -38 -404 -137 -562 -265 -289 -235 -456 -558 -486
-942 -19 -238 7 -421 89 -631 45 -116 65 -155 123 -241 131 -193 282 -329 471
-425 212 -108 372 -150 574 -150 553 0 1050 381 1211 930 38 129 54 251 54
405 0 175 -18 281 -76 454 -52 155 -68 187 -137 291 -88 131 -190 240 -312
335 -72 56 -238 146 -343 187 -166 64 -431 87 -606 52z m126 -141 c16 -14 18
-33 18 -160 l0 -143 -44 0 c-79 0 -121 -60 -81 -117 12 -17 27 -23 68 -25 l52
-3 3 -144 c2 -97 -1 -148 -9 -157 -8 -10 -37 -14 -104 -14 -52 0 -100 3 -109
6 -14 5 -16 46 -16 354 l0 348 24 23 c47 45 163 64 198 32z m286 6 c31 -6 59
-20 76 -38 l27 -28 -1 -344 c0 -260 -3 -345 -13 -351 -20 -13 -205 -7 -217 7
-7 8 -10 66 -8 156 l3 144 52 3 c43 2 56 8 73 30 43 54 1 112 -81 112 l-49 0
0 138 c0 187 9 199 138 171z m-648 -412 c0 -246 -3 -336 -12 -345 -9 -9 -89
-12 -300 -12 -250 0 -289 2 -295 15 -6 18 70 181 124 263 46 70 188 219 263
277 60 46 200 135 212 135 5 0 8 -150 8 -333z m1032 255 c202 -134 345 -301
442 -516 47 -104 69 -96 -267 -96 -215 0 -296 3 -305 12 -9 9 -12 98 -12 338
0 180 3 329 6 333 8 8 44 -10 136 -71z m-1034 -854 l3 -108 -329 0 c-242 0
-331 3 -340 12 -7 7 -12 41 -12 84 0 64 3 74 27 98 l26 26 311 -2 311 -3 3
-107z m377 90 c3 -13 5 -61 3 -108 l-3 -85 -117 -3 -118 -3 0 104 c0 57 3 107
7 110 3 4 55 7 114 7 104 0 109 -1 114 -22z m377 10 c8 -31 -4 -207 -15 -210
-7 -2 -59 -1 -117 2 l-105 5 -3 85 c-5 137 -11 130 122 130 82 0 115 -3 118
-12z m794 -13 c23 -23 25 -31 22 -107 l-3 -83 -337 -3 -338 -2 0 103 c0 57 3
107 7 110 3 4 145 7 315 7 l309 0 25 -25z m-1558 -343 c9 -6 12 -34 10 -103
l-3 -94 -313 -3 -313 -2 -24 24 c-21 21 -25 35 -25 86 0 104 -14 100 348 100
169 0 313 -4 320 -8z m380 -4 c14 -14 17 -165 4 -186 -6 -9 -37 -12 -118 -10
l-109 3 -3 94 c-2 69 1 97 10 103 21 13 202 10 216 -4z m370 3 c12 -7 19 -103
13 -184 -1 -16 -12 -17 -118 -15 l-118 3 -3 88 c-2 57 1 94 9 103 13 16 194
20 217 5z m821 -16 c16 -21 19 -36 14 -83 -4 -38 -13 -65 -26 -80 l-21 -22
-315 2 -316 3 -3 88 c-2 57 1 94 9 103 9 11 68 14 324 14 l314 0 20 -25z
m-1578 -325 c18 -10 19 -25 19 -340 0 -313 -1 -330 -18 -330 -10 0 -72 35
-138 78 -191 126 -317 271 -419 484 -35 72 -41 98 -28 111 11 12 562 8 584 -3z
m380 0 c18 -10 19 -23 19 -170 l0 -160 -44 0 c-79 0 -121 -60 -81 -117 12 -17
27 -23 68 -25 l52 -3 3 -126 c2 -111 0 -129 -16 -149 -16 -20 -27 -23 -68 -21
-59 3 -128 32 -143 59 -7 14 -11 135 -11 361 0 313 1 341 18 350 22 14 178 14
203 1z m385 -3 c12 -11 5 -686 -7 -709 -16 -29 -87 -58 -146 -58 -79 0 -83 7
-83 166 l0 134 53 0 c28 0 57 4 63 8 21 13 34 52 28 77 -9 37 -41 55 -96 55
l-48 0 0 154 c0 195 -4 189 131 184 53 -1 101 -6 105 -11z m751 2 c15 -15 -4
-63 -77 -194 -62 -113 -165 -241 -243 -305 -71 -58 -238 -167 -262 -172 -19
-3 -20 5 -23 326 -2 234 1 333 9 342 15 18 578 21 596 3z"/>
<path d="M895 2466 c-42 -18 -93 -79 -100 -120 -24 -128 109 -227 225 -168 52
26 80 74 80 137 0 66 -29 112 -90 143 -50 25 -72 27 -115 8z m83 -147 c2 -18
-3 -29 -14 -33 -27 -11 -54 3 -54 28 0 30 9 38 40 34 19 -2 26 -10 28 -29z"/>
<path d="M2245 2466 c-113 -50 -128 -212 -26 -282 71 -48 176 -21 220 56 37
67 25 135 -36 192 -50 47 -103 59 -158 34z m95 -136 c7 -14 6 -23 -6 -34 -27
-27 -64 -16 -64 20 0 42 50 52 70 14z"/>
<path d="M905 1093 c-35 -9 -87 -54 -101 -89 -22 -52 -17 -95 15 -146 51 -81
152 -100 221 -41 84 71 80 191 -10 254 -27 19 -92 30 -125 22z m69 -135 c21
-30 4 -60 -32 -56 -34 4 -44 45 -16 65 24 18 30 17 48 -9z"/>
<path d="M2253 1089 c-42 -12 -89 -60 -97 -100 -20 -104 20 -175 115 -200 43
-11 50 -10 95 12 82 41 115 127 78 206 -33 67 -117 104 -191 82z m81 -131 c21
-30 4 -60 -32 -56 -34 4 -44 45 -16 65 24 18 30 17 48 -9z"/>
</g>
</svg>
